<mxfile host="65bd71144e" modified="2021-03-02T13:35:15.432Z" agent="5.0 (Windows NT 10.0; Win64; x64) AppleWebKit/537.36 (KHTML, like Gecko) Code/1.53.2 Chrome/87.0.4280.141 Electron/11.2.1 Safari/537.36" etag="qJzShLQRHHhoDblAKlJQ" version="14.2.4" type="embed">
    <diagram id="C5RBs43oDa-KdzZeNtuy" name="Page-1">
        <mxGraphModel dx="1032" dy="478" grid="0" gridSize="10" guides="1" tooltips="1" connect="1" arrows="1" fold="1" page="1" pageScale="1" pageWidth="1169" pageHeight="827" background="#435443" math="0" shadow="0">
            <root>
                <mxCell id="WIyWlLk6GJQsqaUBKTNV-0"/>
                <mxCell id="WIyWlLk6GJQsqaUBKTNV-1" parent="WIyWlLk6GJQsqaUBKTNV-0"/>
                <mxCell id="9cSjQ4V9_LUC3mXQyiD0-7" value="" style="edgeStyle=orthogonalEdgeStyle;rounded=0;orthogonalLoop=1;jettySize=auto;html=1;entryX=0.5;entryY=0;entryDx=0;entryDy=0;" parent="WIyWlLk6GJQsqaUBKTNV-1" source="bElV7_hxa20HZrv40UDa-0" target="9cSjQ4V9_LUC3mXQyiD0-21" edge="1">
                    <mxGeometry relative="1" as="geometry"/>
                </mxCell>
                <mxCell id="bElV7_hxa20HZrv40UDa-0" value="Calculate R100: devide M by 100&lt;br&gt;subtract reminder (r100)" style="shape=process;whiteSpace=wrap;html=1;backgroundOutline=1;fillColor=#a0522d;strokeColor=#6D1F00;fontColor=#ffffff;" parent="WIyWlLk6GJQsqaUBKTNV-1" vertex="1">
                    <mxGeometry x="360" y="330" width="120" height="60" as="geometry"/>
                </mxCell>
                <mxCell id="9cSjQ4V9_LUC3mXQyiD0-3" style="edgeStyle=orthogonalEdgeStyle;rounded=0;orthogonalLoop=1;jettySize=auto;html=1;exitX=0.5;exitY=1;exitDx=0;exitDy=0;" parent="WIyWlLk6GJQsqaUBKTNV-1" source="9cSjQ4V9_LUC3mXQyiD0-0" edge="1">
                    <mxGeometry relative="1" as="geometry">
                        <mxPoint x="420" y="230" as="targetPoint"/>
                    </mxGeometry>
                </mxCell>
                <mxCell id="9cSjQ4V9_LUC3mXQyiD0-0" value="Input amount (M)" style="shape=parallelogram;perimeter=parallelogramPerimeter;whiteSpace=wrap;html=1;fixedSize=1;fillColor=#0050ef;strokeColor=#001DBC;fontColor=#ffffff;" parent="WIyWlLk6GJQsqaUBKTNV-1" vertex="1">
                    <mxGeometry x="360" y="100" width="120" height="60" as="geometry"/>
                </mxCell>
                <mxCell id="9cSjQ4V9_LUC3mXQyiD0-2" value="" style="group;fillColor=#60a917;strokeColor=#2D7600;fontColor=#ffffff;" parent="WIyWlLk6GJQsqaUBKTNV-1" vertex="1" connectable="0">
                    <mxGeometry x="360" y="10" width="120" height="40" as="geometry"/>
                </mxCell>
                <mxCell id="9cSjQ4V9_LUC3mXQyiD0-1" value="" style="group;fillColor=#6a00ff;strokeColor=#3700CC;fontColor=#ffffff;" parent="9cSjQ4V9_LUC3mXQyiD0-2" vertex="1" connectable="0">
                    <mxGeometry width="120" height="40" as="geometry"/>
                </mxCell>
                <mxCell id="WIyWlLk6GJQsqaUBKTNV-3" value="start" style="rounded=1;whiteSpace=wrap;html=1;fontSize=12;glass=0;strokeWidth=1;shadow=0;" parent="9cSjQ4V9_LUC3mXQyiD0-1" vertex="1">
                    <mxGeometry width="120" height="40" as="geometry"/>
                </mxCell>
                <mxCell id="WIyWlLk6GJQsqaUBKTNV-2" value="" style="rounded=0;html=1;jettySize=auto;orthogonalLoop=1;fontSize=11;endArrow=block;endFill=0;endSize=8;strokeWidth=1;shadow=0;labelBackgroundColor=none;edgeStyle=orthogonalEdgeStyle;entryX=0.5;entryY=0;entryDx=0;entryDy=0;" parent="WIyWlLk6GJQsqaUBKTNV-1" source="WIyWlLk6GJQsqaUBKTNV-3" target="9cSjQ4V9_LUC3mXQyiD0-0" edge="1">
                    <mxGeometry relative="1" as="geometry"/>
                </mxCell>
                <mxCell id="9cSjQ4V9_LUC3mXQyiD0-9" value="" style="edgeStyle=orthogonalEdgeStyle;rounded=0;orthogonalLoop=1;jettySize=auto;html=1;entryX=0.5;entryY=0;entryDx=0;entryDy=0;" parent="WIyWlLk6GJQsqaUBKTNV-1" source="9cSjQ4V9_LUC3mXQyiD0-6" target="9cSjQ4V9_LUC3mXQyiD0-29" edge="1">
                    <mxGeometry relative="1" as="geometry"/>
                </mxCell>
                <mxCell id="9cSjQ4V9_LUC3mXQyiD0-6" value="Calculate R50: devide r100 by 50&lt;br&gt;subtract reminder (r50)" style="shape=process;whiteSpace=wrap;html=1;backgroundOutline=1;fillColor=#a0522d;strokeColor=#6D1F00;fontColor=#ffffff;" parent="WIyWlLk6GJQsqaUBKTNV-1" vertex="1">
                    <mxGeometry x="370" y="550" width="130" height="70" as="geometry"/>
                </mxCell>
                <mxCell id="9cSjQ4V9_LUC3mXQyiD0-8" value="Calculate R20: devide r20 by 20&lt;br&gt;subtract reminder (r20)" style="shape=process;whiteSpace=wrap;html=1;backgroundOutline=1;fillColor=#a0522d;strokeColor=#6D1F00;fontColor=#ffffff;" parent="WIyWlLk6GJQsqaUBKTNV-1" vertex="1">
                    <mxGeometry x="372.5" y="760" width="140" height="60" as="geometry"/>
                </mxCell>
                <mxCell id="4" style="edgeStyle=orthogonalEdgeStyle;rounded=0;orthogonalLoop=1;jettySize=auto;html=1;entryX=0.411;entryY=0.044;entryDx=0;entryDy=0;entryPerimeter=0;" edge="1" parent="WIyWlLk6GJQsqaUBKTNV-1" target="9cSjQ4V9_LUC3mXQyiD0-49">
                    <mxGeometry relative="1" as="geometry">
                        <mxPoint x="407" y="1158" as="sourcePoint"/>
                        <Array as="points">
                            <mxPoint x="232" y="1158"/>
                        </Array>
                    </mxGeometry>
                </mxCell>
                <mxCell id="6" style="edgeStyle=orthogonalEdgeStyle;rounded=0;orthogonalLoop=1;jettySize=auto;html=1;exitX=0.5;exitY=1;exitDx=0;exitDy=0;" edge="1" parent="WIyWlLk6GJQsqaUBKTNV-1" source="9cSjQ4V9_LUC3mXQyiD0-10" target="9cSjQ4V9_LUC3mXQyiD0-38">
                    <mxGeometry relative="1" as="geometry"/>
                </mxCell>
                <mxCell id="9cSjQ4V9_LUC3mXQyiD0-10" value="Calculate R10: devide r20 by 10&lt;br&gt;subtract reminder (r10)" style="shape=process;whiteSpace=wrap;html=1;backgroundOutline=1;fillColor=#a0522d;strokeColor=#6D1F00;fontColor=#ffffff;" parent="WIyWlLk6GJQsqaUBKTNV-1" vertex="1">
                    <mxGeometry x="370.5" y="983" width="140" height="60" as="geometry"/>
                </mxCell>
                <mxCell id="9cSjQ4V9_LUC3mXQyiD0-11" value="" style="edgeStyle=orthogonalEdgeStyle;rounded=0;orthogonalLoop=1;jettySize=auto;html=1;entryX=0.5;entryY=0;entryDx=0;entryDy=0;" parent="WIyWlLk6GJQsqaUBKTNV-1" target="9cSjQ4V9_LUC3mXQyiD0-31" edge="1">
                    <mxGeometry relative="1" as="geometry">
                        <mxPoint x="437.5" y="820" as="sourcePoint"/>
                        <mxPoint x="437.5" y="860" as="targetPoint"/>
                        <Array as="points">
                            <mxPoint x="438" y="860"/>
                        </Array>
                    </mxGeometry>
                </mxCell>
                <mxCell id="9cSjQ4V9_LUC3mXQyiD0-13" style="edgeStyle=orthogonalEdgeStyle;rounded=0;orthogonalLoop=1;jettySize=auto;html=1;entryX=0.5;entryY=0;entryDx=0;entryDy=0;" parent="WIyWlLk6GJQsqaUBKTNV-1" target="bElV7_hxa20HZrv40UDa-0" edge="1">
                    <mxGeometry relative="1" as="geometry">
                        <mxPoint x="418" y="270" as="sourcePoint"/>
                        <mxPoint x="418.96000000000004" y="351.98" as="targetPoint"/>
                        <Array as="points">
                            <mxPoint x="419" y="270"/>
                            <mxPoint x="419" y="330"/>
                            <mxPoint x="415" y="330"/>
                        </Array>
                    </mxGeometry>
                </mxCell>
                <mxCell id="9cSjQ4V9_LUC3mXQyiD0-16" style="edgeStyle=orthogonalEdgeStyle;rounded=0;orthogonalLoop=1;jettySize=auto;html=1;entryX=1;entryY=0.5;entryDx=0;entryDy=0;" parent="WIyWlLk6GJQsqaUBKTNV-1" source="9cSjQ4V9_LUC3mXQyiD0-12" target="9cSjQ4V9_LUC3mXQyiD0-14" edge="1">
                    <mxGeometry relative="1" as="geometry"/>
                </mxCell>
                <mxCell id="9cSjQ4V9_LUC3mXQyiD0-12" value="M &amp;gt; 10?" style="rhombus;whiteSpace=wrap;html=1;fillColor=#60a917;strokeColor=#2D7600;fontColor=#ffffff;" parent="WIyWlLk6GJQsqaUBKTNV-1" vertex="1">
                    <mxGeometry x="380" y="200" width="80" height="70" as="geometry"/>
                </mxCell>
                <mxCell id="9cSjQ4V9_LUC3mXQyiD0-14" value="Amount must be above 10" style="shape=parallelogram;perimeter=parallelogramPerimeter;whiteSpace=wrap;html=1;fixedSize=1;fillColor=#0050ef;strokeColor=#001DBC;fontColor=#ffffff;" parent="WIyWlLk6GJQsqaUBKTNV-1" vertex="1">
                    <mxGeometry x="200" y="205" width="120" height="60" as="geometry"/>
                </mxCell>
                <mxCell id="9cSjQ4V9_LUC3mXQyiD0-17" value="No" style="text;html=1;strokeColor=none;fillColor=none;align=center;verticalAlign=middle;whiteSpace=wrap;rounded=0;" parent="WIyWlLk6GJQsqaUBKTNV-1" vertex="1">
                    <mxGeometry x="340" y="210" width="40" height="20" as="geometry"/>
                </mxCell>
                <mxCell id="9cSjQ4V9_LUC3mXQyiD0-18" value="Yes" style="text;html=1;strokeColor=none;fillColor=none;align=center;verticalAlign=middle;whiteSpace=wrap;rounded=0;" parent="WIyWlLk6GJQsqaUBKTNV-1" vertex="1">
                    <mxGeometry x="420" y="300" width="40" height="20" as="geometry"/>
                </mxCell>
                <mxCell id="0" style="edgeStyle=orthogonalEdgeStyle;rounded=0;orthogonalLoop=1;jettySize=auto;html=1;" edge="1" parent="WIyWlLk6GJQsqaUBKTNV-1" source="9cSjQ4V9_LUC3mXQyiD0-20" target="9cSjQ4V9_LUC3mXQyiD0-36">
                    <mxGeometry relative="1" as="geometry"/>
                </mxCell>
                <mxCell id="9cSjQ4V9_LUC3mXQyiD0-20" value="Give out:&lt;br&gt;R100 x €100&lt;br&gt;R50 x €50&lt;br&gt;R20 x €20&lt;br&gt;R10x€10" style="shape=parallelogram;perimeter=parallelogramPerimeter;whiteSpace=wrap;html=1;fixedSize=1;fillColor=#0050ef;strokeColor=#001DBC;fontColor=#ffffff;" parent="WIyWlLk6GJQsqaUBKTNV-1" vertex="1">
                    <mxGeometry x="370" y="1279" width="140" height="80" as="geometry"/>
                </mxCell>
                <mxCell id="9cSjQ4V9_LUC3mXQyiD0-23" style="edgeStyle=orthogonalEdgeStyle;rounded=0;orthogonalLoop=1;jettySize=auto;html=1;exitX=0.5;exitY=1;exitDx=0;exitDy=0;entryX=0.5;entryY=0;entryDx=0;entryDy=0;" parent="WIyWlLk6GJQsqaUBKTNV-1" source="9cSjQ4V9_LUC3mXQyiD0-21" target="9cSjQ4V9_LUC3mXQyiD0-6" edge="1">
                    <mxGeometry relative="1" as="geometry"/>
                </mxCell>
                <mxCell id="9cSjQ4V9_LUC3mXQyiD0-27" style="edgeStyle=orthogonalEdgeStyle;rounded=0;orthogonalLoop=1;jettySize=auto;html=1;exitX=0;exitY=0.5;exitDx=0;exitDy=0;" parent="WIyWlLk6GJQsqaUBKTNV-1" source="9cSjQ4V9_LUC3mXQyiD0-21" target="9cSjQ4V9_LUC3mXQyiD0-26" edge="1">
                    <mxGeometry relative="1" as="geometry"/>
                </mxCell>
                <mxCell id="9cSjQ4V9_LUC3mXQyiD0-21" value="is R100&amp;gt;1?&lt;br&gt;pass R100" style="rhombus;whiteSpace=wrap;html=1;fillColor=#60a917;strokeColor=#2D7600;fontColor=#ffffff;" parent="WIyWlLk6GJQsqaUBKTNV-1" vertex="1">
                    <mxGeometry x="395" y="430" width="80" height="80" as="geometry"/>
                </mxCell>
                <mxCell id="9cSjQ4V9_LUC3mXQyiD0-24" value="No" style="text;html=1;strokeColor=none;fillColor=none;align=center;verticalAlign=middle;whiteSpace=wrap;rounded=0;" parent="WIyWlLk6GJQsqaUBKTNV-1" vertex="1">
                    <mxGeometry x="350" y="447.5" width="40" height="20" as="geometry"/>
                </mxCell>
                <mxCell id="9cSjQ4V9_LUC3mXQyiD0-25" value="yes" style="text;html=1;strokeColor=none;fillColor=none;align=center;verticalAlign=middle;whiteSpace=wrap;rounded=0;" parent="WIyWlLk6GJQsqaUBKTNV-1" vertex="1">
                    <mxGeometry x="440" y="515" width="40" height="20" as="geometry"/>
                </mxCell>
                <mxCell id="9cSjQ4V9_LUC3mXQyiD0-26" value="R100=0" style="shape=process;whiteSpace=wrap;html=1;backgroundOutline=1;fillColor=#a0522d;strokeColor=#6D1F00;fontColor=#ffffff;" parent="WIyWlLk6GJQsqaUBKTNV-1" vertex="1">
                    <mxGeometry x="200" y="447.5" width="90" height="45" as="geometry"/>
                </mxCell>
                <mxCell id="9cSjQ4V9_LUC3mXQyiD0-30" style="edgeStyle=orthogonalEdgeStyle;rounded=0;orthogonalLoop=1;jettySize=auto;html=1;exitX=0.5;exitY=1;exitDx=0;exitDy=0;entryX=0.446;entryY=0;entryDx=0;entryDy=0;entryPerimeter=0;" parent="WIyWlLk6GJQsqaUBKTNV-1" source="9cSjQ4V9_LUC3mXQyiD0-29" target="9cSjQ4V9_LUC3mXQyiD0-8" edge="1">
                    <mxGeometry relative="1" as="geometry"/>
                </mxCell>
                <mxCell id="9cSjQ4V9_LUC3mXQyiD0-29" value="is R50&amp;gt;1?&lt;br&gt;pass R50" style="rhombus;whiteSpace=wrap;html=1;fillColor=#60a917;strokeColor=#2D7600;fontColor=#ffffff;" parent="WIyWlLk6GJQsqaUBKTNV-1" vertex="1">
                    <mxGeometry x="395" y="640" width="80" height="80" as="geometry"/>
                </mxCell>
                <mxCell id="9cSjQ4V9_LUC3mXQyiD0-33" style="edgeStyle=orthogonalEdgeStyle;rounded=0;orthogonalLoop=1;jettySize=auto;html=1;exitX=0.5;exitY=1;exitDx=0;exitDy=0;entryX=0.5;entryY=0;entryDx=0;entryDy=0;" parent="WIyWlLk6GJQsqaUBKTNV-1" source="9cSjQ4V9_LUC3mXQyiD0-31" target="9cSjQ4V9_LUC3mXQyiD0-10" edge="1">
                    <mxGeometry relative="1" as="geometry"/>
                </mxCell>
                <mxCell id="9cSjQ4V9_LUC3mXQyiD0-31" value="is R20&amp;gt;1?&lt;br&gt;pass R20" style="rhombus;whiteSpace=wrap;html=1;fillColor=#60a917;strokeColor=#2D7600;fontColor=#ffffff;" parent="WIyWlLk6GJQsqaUBKTNV-1" vertex="1">
                    <mxGeometry x="400" y="840" width="80" height="80" as="geometry"/>
                </mxCell>
                <mxCell id="9cSjQ4V9_LUC3mXQyiD0-34" value="" style="group;fillColor=#6a00ff;strokeColor=#3700CC;fontColor=#ffffff;" parent="WIyWlLk6GJQsqaUBKTNV-1" vertex="1" connectable="0">
                    <mxGeometry x="380" y="1449" width="120" height="40" as="geometry"/>
                </mxCell>
                <mxCell id="9cSjQ4V9_LUC3mXQyiD0-35" value="" style="group;" parent="9cSjQ4V9_LUC3mXQyiD0-34" vertex="1" connectable="0">
                    <mxGeometry width="120" height="40" as="geometry"/>
                </mxCell>
                <mxCell id="9cSjQ4V9_LUC3mXQyiD0-36" value="End" style="rounded=1;whiteSpace=wrap;html=1;fontSize=12;glass=0;strokeWidth=1;shadow=0;" parent="9cSjQ4V9_LUC3mXQyiD0-35" vertex="1">
                    <mxGeometry width="120" height="40" as="geometry"/>
                </mxCell>
                <mxCell id="9cSjQ4V9_LUC3mXQyiD0-40" style="edgeStyle=orthogonalEdgeStyle;rounded=0;orthogonalLoop=1;jettySize=auto;html=1;exitX=0.5;exitY=1;exitDx=0;exitDy=0;entryX=0.5;entryY=0;entryDx=0;entryDy=0;" parent="WIyWlLk6GJQsqaUBKTNV-1" source="9cSjQ4V9_LUC3mXQyiD0-38" target="9cSjQ4V9_LUC3mXQyiD0-20" edge="1">
                    <mxGeometry relative="1" as="geometry">
                        <mxPoint x="459" y="1207" as="targetPoint"/>
                    </mxGeometry>
                </mxCell>
                <mxCell id="9cSjQ4V9_LUC3mXQyiD0-38" value="is R10&amp;gt;1?&lt;br&gt;pass R10" style="rhombus;whiteSpace=wrap;html=1;fillColor=#60a917;strokeColor=#2D7600;fontColor=#ffffff;" parent="WIyWlLk6GJQsqaUBKTNV-1" vertex="1">
                    <mxGeometry x="400.5" y="1122" width="80" height="80" as="geometry"/>
                </mxCell>
                <mxCell id="9cSjQ4V9_LUC3mXQyiD0-41" style="edgeStyle=orthogonalEdgeStyle;rounded=0;orthogonalLoop=1;jettySize=auto;html=1;exitX=0;exitY=0.5;exitDx=0;exitDy=0;" parent="WIyWlLk6GJQsqaUBKTNV-1" target="9cSjQ4V9_LUC3mXQyiD0-43" edge="1">
                    <mxGeometry relative="1" as="geometry">
                        <mxPoint x="400" y="680" as="sourcePoint"/>
                    </mxGeometry>
                </mxCell>
                <mxCell id="9cSjQ4V9_LUC3mXQyiD0-42" value="No" style="text;html=1;strokeColor=none;fillColor=none;align=center;verticalAlign=middle;whiteSpace=wrap;rounded=0;" parent="WIyWlLk6GJQsqaUBKTNV-1" vertex="1">
                    <mxGeometry x="355" y="657.5" width="40" height="20" as="geometry"/>
                </mxCell>
                <mxCell id="9cSjQ4V9_LUC3mXQyiD0-43" value="R50=0" style="shape=process;whiteSpace=wrap;html=1;backgroundOutline=1;fillColor=#a0522d;strokeColor=#6D1F00;fontColor=#ffffff;" parent="WIyWlLk6GJQsqaUBKTNV-1" vertex="1">
                    <mxGeometry x="205" y="657.5" width="90" height="45" as="geometry"/>
                </mxCell>
                <mxCell id="9cSjQ4V9_LUC3mXQyiD0-44" style="edgeStyle=orthogonalEdgeStyle;rounded=0;orthogonalLoop=1;jettySize=auto;html=1;exitX=0;exitY=0.5;exitDx=0;exitDy=0;" parent="WIyWlLk6GJQsqaUBKTNV-1" target="9cSjQ4V9_LUC3mXQyiD0-46" edge="1">
                    <mxGeometry relative="1" as="geometry">
                        <mxPoint x="400" y="880" as="sourcePoint"/>
                    </mxGeometry>
                </mxCell>
                <mxCell id="9cSjQ4V9_LUC3mXQyiD0-45" value="No" style="text;html=1;strokeColor=none;fillColor=none;align=center;verticalAlign=middle;whiteSpace=wrap;rounded=0;" parent="WIyWlLk6GJQsqaUBKTNV-1" vertex="1">
                    <mxGeometry x="355" y="857.5" width="40" height="20" as="geometry"/>
                </mxCell>
                <mxCell id="9cSjQ4V9_LUC3mXQyiD0-46" value="R20=0" style="shape=process;whiteSpace=wrap;html=1;backgroundOutline=1;fillColor=#a0522d;strokeColor=#6D1F00;fontColor=#ffffff;" parent="WIyWlLk6GJQsqaUBKTNV-1" vertex="1">
                    <mxGeometry x="205" y="857.5" width="90" height="45" as="geometry"/>
                </mxCell>
                <mxCell id="9cSjQ4V9_LUC3mXQyiD0-48" value="No" style="text;html=1;strokeColor=none;fillColor=none;align=center;verticalAlign=middle;whiteSpace=wrap;rounded=0;" parent="WIyWlLk6GJQsqaUBKTNV-1" vertex="1">
                    <mxGeometry x="520" y="1010" width="40" height="20" as="geometry"/>
                </mxCell>
                <mxCell id="9cSjQ4V9_LUC3mXQyiD0-49" value="R10=0" style="shape=process;whiteSpace=wrap;html=1;backgroundOutline=1;fillColor=#a0522d;strokeColor=#6D1F00;fontColor=#ffffff;" parent="WIyWlLk6GJQsqaUBKTNV-1" vertex="1">
                    <mxGeometry x="195" y="1134" width="90" height="45" as="geometry"/>
                </mxCell>
                <mxCell id="9cSjQ4V9_LUC3mXQyiD0-51" value="yes" style="text;html=1;strokeColor=none;fillColor=none;align=center;verticalAlign=middle;whiteSpace=wrap;rounded=0;" parent="WIyWlLk6GJQsqaUBKTNV-1" vertex="1">
                    <mxGeometry x="450" y="910" width="40" height="20" as="geometry"/>
                </mxCell>
                <mxCell id="9cSjQ4V9_LUC3mXQyiD0-52" value="yes" style="text;html=1;strokeColor=none;fillColor=none;align=center;verticalAlign=middle;whiteSpace=wrap;rounded=0;" parent="WIyWlLk6GJQsqaUBKTNV-1" vertex="1">
                    <mxGeometry x="440" y="720" width="40" height="20" as="geometry"/>
                </mxCell>
                <mxCell id="9cSjQ4V9_LUC3mXQyiD0-54" value="yes" style="text;html=1;strokeColor=none;fillColor=none;align=center;verticalAlign=middle;whiteSpace=wrap;rounded=0;" parent="WIyWlLk6GJQsqaUBKTNV-1" vertex="1">
                    <mxGeometry x="460" y="1093" width="40" height="20" as="geometry"/>
                </mxCell>
            </root>
        </mxGraphModel>
    </diagram>
</mxfile>